<svg width="90" height="88" viewBox="0 0 90 88" fill="none" xmlns="http://www.w3.org/2000/svg">
<path d="M0 0.266602L68.9021 0.0599665C79.9584 0.0268091 88.9504 9.71531 88.9863 21.6998V21.6998C89.0223 33.6844 80.0885 43.4266 69.0323 43.4598L20.1493 43.6064C9.09303 43.6395 0.101018 33.951 0.0650773 21.9665L0 0.266602Z" fill="#B1CFFF"/>
<path d="M0 44.2666L68.9021 44.06C79.9584 44.0268 88.9504 53.7153 88.9863 65.6998V65.6998C89.0223 77.6844 80.0885 87.4266 69.0323 87.4598L20.1493 87.6064C9.09303 87.6395 0.101018 77.951 0.0650773 65.9665L0 44.2666Z" fill="#AFCDFE"/>
<path d="M88.8545 23.5312C88.03 34.6613 79.454 43.4285 68.9668 43.46L20.084 43.6064C9.03801 43.6396 0.052576 33.9691 0 22H88.8545V23.5312Z" fill="#0021A7"/>
<path d="M88.8545 67.5312C88.03 78.6613 79.454 87.4285 68.9668 87.46L20.084 87.6064C9.03801 87.6396 0.052576 77.9691 0 66H88.8545V67.5312Z" fill="#0021A7"/>
</svg>
