<svg width="90" height="90" viewBox="0 0 90 90" fill="none" xmlns="http://www.w3.org/2000/svg">
<path d="M0 0.266602L68.9021 0.0599665C79.9584 0.0268091 88.9504 9.71531 88.9863 21.6998V21.6998C89.0223 33.6844 80.0885 43.4266 69.0323 43.4598L20.1493 43.6064C9.09303 43.6395 0.101018 33.951 0.0650773 21.9665L0 0.266602Z" fill="#AACAFE"/>
<path d="M0 45.2666L68.9021 45.06C79.9584 45.0268 88.9504 54.7153 88.9863 66.6998V66.6998C89.0223 78.6844 80.0885 88.4266 69.0323 88.4598L20.1493 88.6064C9.09303 88.6395 0.101018 78.951 0.0650773 66.9665L0 45.2666Z" fill="#AACAFE"/>
<path d="M88.8545 23.5312C88.03 34.6613 79.454 43.4285 68.9668 43.46L20.084 43.6064C9.03801 43.6396 0.052576 33.9691 0 22H88.8545V23.5312Z" fill="#12259B"/>
<path d="M88.8545 69.5312C88.03 80.6613 79.454 89.4285 68.9668 89.46L20.084 89.6064C9.03801 89.6396 0.052576 79.9691 0 68H88.8545V69.5312Z" fill="#12259B"/>
</svg>
